<mxfile host="app.diagrams.net" modified="2023-09-12T16:04:14.984Z" agent="Mozilla/5.0 (Windows NT 10.0; Win64; x64) AppleWebKit/537.36 (KHTML, like Gecko) Chrome/115.0.0.0 Safari/537.36 OPR/101.0.0.0" etag="Q3anvqFq0JaJzpSdwynI" version="21.7.4" type="device">
  <diagram name="Seite-1" id="BAWt1HLnT4WBNr3hunWq">
    <mxGraphModel dx="1161" dy="664" grid="1" gridSize="10" guides="1" tooltips="1" connect="1" arrows="1" fold="1" page="1" pageScale="1" pageWidth="827" pageHeight="1169" math="0" shadow="0">
      <root>
        <mxCell id="0" />
        <mxCell id="1" parent="0" />
        <mxCell id="Ajewz8YUoXNlqYzXFVEX-1" value="" style="shape=flexArrow;endArrow=classic;startArrow=none;html=1;rounded=0;width=5.573770491803279;startSize=4.813114754098361;endSize=4.813114754098361;endWidth=11.615157215802205;startWidth=11.615157215802205;startFill=0;fillColor=#dae8fc;strokeColor=#6c8ebf;" edge="1" parent="1">
          <mxGeometry width="100" height="100" relative="1" as="geometry">
            <mxPoint x="210" y="550" as="sourcePoint" />
            <mxPoint x="210" y="450" as="targetPoint" />
          </mxGeometry>
        </mxCell>
        <mxCell id="Ajewz8YUoXNlqYzXFVEX-2" value="" style="shape=flexArrow;endArrow=classic;startArrow=classic;html=1;rounded=0;width=5.573770491803279;startSize=4.813114754098361;endSize=4.813114754098361;endWidth=11.615157215802205;startWidth=11.615157215802205;fillColor=#f8cecc;strokeColor=#b85450;" edge="1" parent="1">
          <mxGeometry width="100" height="100" relative="1" as="geometry">
            <mxPoint x="434.8" y="550" as="sourcePoint" />
            <mxPoint x="434.8" y="500" as="targetPoint" />
          </mxGeometry>
        </mxCell>
        <mxCell id="Ajewz8YUoXNlqYzXFVEX-3" value="&lt;font style=&quot;font-size: 12px;&quot;&gt;Ergebniskanal&lt;/font&gt;" style="rounded=0;whiteSpace=wrap;html=1;fillColor=#dae8fc;strokeColor=#6c8ebf;" vertex="1" parent="1">
          <mxGeometry x="120" y="430" width="400" height="20" as="geometry" />
        </mxCell>
        <mxCell id="Ajewz8YUoXNlqYzXFVEX-4" value="" style="shape=flexArrow;endArrow=classic;startArrow=classic;html=1;rounded=0;width=5.573770491803279;startSize=4.813114754098361;endSize=4.813114754098361;endWidth=11.615157215802205;startWidth=11.615157215802205;fillColor=#f8cecc;strokeColor=#b85450;" edge="1" parent="1">
          <mxGeometry width="100" height="100" relative="1" as="geometry">
            <mxPoint x="490" y="550" as="sourcePoint" />
            <mxPoint x="490" y="450" as="targetPoint" />
          </mxGeometry>
        </mxCell>
        <mxCell id="Ajewz8YUoXNlqYzXFVEX-5" value="" style="shape=flexArrow;endArrow=classic;startArrow=classic;html=1;rounded=0;width=5.573770491803279;startSize=4.813114754098361;endSize=4.813114754098361;endWidth=11.615157215802205;startWidth=11.615157215802205;fillColor=#f8cecc;strokeColor=#b85450;" edge="1" parent="1">
          <mxGeometry width="100" height="100" relative="1" as="geometry">
            <mxPoint x="349.6" y="550" as="sourcePoint" />
            <mxPoint x="349.6" y="450" as="targetPoint" />
          </mxGeometry>
        </mxCell>
        <mxCell id="Ajewz8YUoXNlqYzXFVEX-6" value="" style="shape=flexArrow;endArrow=classic;startArrow=classic;html=1;rounded=0;width=5.573770491803279;startSize=4.813114754098361;endSize=4.813114754098361;endWidth=11.615157215802205;startWidth=11.615157215802205;fontStyle=1;fillColor=#f8cecc;strokeColor=#b85450;" edge="1" parent="1">
          <mxGeometry width="100" height="100" relative="1" as="geometry">
            <mxPoint x="289.6" y="550" as="sourcePoint" />
            <mxPoint x="289.6" y="500" as="targetPoint" />
          </mxGeometry>
        </mxCell>
        <mxCell id="Ajewz8YUoXNlqYzXFVEX-7" value="" style="shape=flexArrow;endArrow=classic;startArrow=block;html=1;rounded=0;width=5.573770491803279;startSize=4.813114754098361;endSize=4.813114754098361;endWidth=11.615157215802205;startWidth=11.615157215802205;startFill=0;fillColor=#dae8fc;strokeColor=#6c8ebf;" edge="1" parent="1">
          <mxGeometry width="100" height="100" relative="1" as="geometry">
            <mxPoint x="150" y="550" as="sourcePoint" />
            <mxPoint x="150" y="500" as="targetPoint" />
          </mxGeometry>
        </mxCell>
        <mxCell id="Ajewz8YUoXNlqYzXFVEX-8" value="&lt;font style=&quot;font-size: 12px;&quot;&gt;Datenkanal&lt;/font&gt;" style="rounded=0;whiteSpace=wrap;html=1;fillColor=#dae8fc;strokeColor=#6c8ebf;" vertex="1" parent="1">
          <mxGeometry x="120" y="480" width="400" height="20" as="geometry" />
        </mxCell>
        <mxCell id="Ajewz8YUoXNlqYzXFVEX-9" value="" style="rounded=0;whiteSpace=wrap;html=1;fillColor=#fff2cc;strokeColor=#d6b656;" vertex="1" parent="1">
          <mxGeometry x="400" y="550" width="120" height="60" as="geometry" />
        </mxCell>
        <mxCell id="Ajewz8YUoXNlqYzXFVEX-11" value="&lt;font style=&quot;font-size: 12px;&quot;&gt;LSU&lt;/font&gt;" style="rounded=0;whiteSpace=wrap;html=1;fontStyle=0;fillColor=#dae8fc;strokeColor=#6c8ebf;" vertex="1" parent="1">
          <mxGeometry x="120" y="550" width="120" height="60" as="geometry" />
        </mxCell>
        <mxCell id="Ajewz8YUoXNlqYzXFVEX-15" value="" style="rounded=0;whiteSpace=wrap;html=1;strokeWidth=1;dashed=1;dashPattern=1 1;fillColor=none;strokeColor=#d6b656;" vertex="1" parent="1">
          <mxGeometry x="400" y="550" width="60" height="30" as="geometry" />
        </mxCell>
        <mxCell id="Ajewz8YUoXNlqYzXFVEX-16" value="&lt;font style=&quot;font-size: 12px;&quot;&gt;Eingabe/ Ausgabe&lt;/font&gt;" style="text;html=1;strokeColor=none;fillColor=none;align=center;verticalAlign=middle;whiteSpace=wrap;rounded=0;" vertex="1" parent="1">
          <mxGeometry x="400" y="550" width="60" height="30" as="geometry" />
        </mxCell>
        <mxCell id="Ajewz8YUoXNlqYzXFVEX-23" value="&lt;font style=&quot;font-size: 12px;&quot;&gt;A1&lt;/font&gt;" style="text;html=1;strokeColor=none;fillColor=none;align=center;verticalAlign=middle;whiteSpace=wrap;rounded=0;" vertex="1" parent="1">
          <mxGeometry x="430" y="580" width="60" height="30" as="geometry" />
        </mxCell>
        <mxCell id="Ajewz8YUoXNlqYzXFVEX-24" value="" style="ellipse;whiteSpace=wrap;html=1;aspect=fixed;fillColor=#fff2cc;strokeColor=#d6b656;" vertex="1" parent="1">
          <mxGeometry x="250" y="620" width="10" height="10" as="geometry" />
        </mxCell>
        <mxCell id="Ajewz8YUoXNlqYzXFVEX-25" value="&lt;font style=&quot;font-size: 12px;&quot;&gt;Beschleuniger-Atome&lt;/font&gt;" style="text;html=1;strokeColor=none;fillColor=none;align=left;verticalAlign=middle;whiteSpace=wrap;rounded=0;" vertex="1" parent="1">
          <mxGeometry x="260" y="620" width="130" height="10" as="geometry" />
        </mxCell>
        <mxCell id="Ajewz8YUoXNlqYzXFVEX-26" value="" style="ellipse;whiteSpace=wrap;html=1;aspect=fixed;fillColor=#dae8fc;strokeColor=#6c8ebf;" vertex="1" parent="1">
          <mxGeometry x="120" y="620" width="10" height="10" as="geometry" />
        </mxCell>
        <mxCell id="Ajewz8YUoXNlqYzXFVEX-27" value="&lt;font style=&quot;font-size: 12px;&quot;&gt;icore-Komponenten&lt;/font&gt;" style="text;html=1;strokeColor=none;fillColor=none;align=left;verticalAlign=middle;whiteSpace=wrap;rounded=0;" vertex="1" parent="1">
          <mxGeometry x="130" y="620" width="130" height="10" as="geometry" />
        </mxCell>
        <mxCell id="Ajewz8YUoXNlqYzXFVEX-28" value="" style="ellipse;whiteSpace=wrap;html=1;aspect=fixed;fillColor=#f8cecc;strokeColor=#b85450;" vertex="1" parent="1">
          <mxGeometry x="120" y="640" width="10" height="10" as="geometry" />
        </mxCell>
        <mxCell id="Ajewz8YUoXNlqYzXFVEX-29" value="&lt;font style=&quot;font-size: 12px;&quot;&gt;Kommunikationsschnittstelle&lt;/font&gt;" style="text;html=1;strokeColor=none;fillColor=none;align=left;verticalAlign=middle;whiteSpace=wrap;rounded=0;" vertex="1" parent="1">
          <mxGeometry x="130" y="640" width="130" height="10" as="geometry" />
        </mxCell>
        <mxCell id="Ajewz8YUoXNlqYzXFVEX-31" value="" style="rounded=0;whiteSpace=wrap;html=1;strokeWidth=1;dashed=1;dashPattern=1 1;fillColor=none;strokeColor=#d6b656;" vertex="1" parent="1">
          <mxGeometry x="460" y="550" width="60" height="30" as="geometry" />
        </mxCell>
        <mxCell id="Ajewz8YUoXNlqYzXFVEX-32" value="&lt;font style=&quot;font-size: 12px;&quot;&gt;Ergebnis&lt;/font&gt;" style="text;html=1;strokeColor=none;fillColor=none;align=center;verticalAlign=middle;whiteSpace=wrap;rounded=0;" vertex="1" parent="1">
          <mxGeometry x="460" y="550" width="60" height="30" as="geometry" />
        </mxCell>
        <mxCell id="Ajewz8YUoXNlqYzXFVEX-33" value="" style="rounded=0;whiteSpace=wrap;html=1;fillColor=#fff2cc;strokeColor=#d6b656;" vertex="1" parent="1">
          <mxGeometry x="260" y="550" width="120" height="60" as="geometry" />
        </mxCell>
        <mxCell id="Ajewz8YUoXNlqYzXFVEX-34" value="" style="rounded=0;whiteSpace=wrap;html=1;strokeWidth=1;dashed=1;dashPattern=1 1;fillColor=none;strokeColor=#d6b656;" vertex="1" parent="1">
          <mxGeometry x="260" y="550" width="60" height="30" as="geometry" />
        </mxCell>
        <mxCell id="Ajewz8YUoXNlqYzXFVEX-35" value="&lt;font style=&quot;font-size: 12px;&quot;&gt;Eingabe/ Ausgabe&lt;/font&gt;" style="text;html=1;strokeColor=none;fillColor=none;align=center;verticalAlign=middle;whiteSpace=wrap;rounded=0;" vertex="1" parent="1">
          <mxGeometry x="260" y="550" width="60" height="30" as="geometry" />
        </mxCell>
        <mxCell id="Ajewz8YUoXNlqYzXFVEX-36" value="&lt;font style=&quot;font-size: 12px;&quot;&gt;A1&lt;/font&gt;" style="text;html=1;strokeColor=none;fillColor=none;align=center;verticalAlign=middle;whiteSpace=wrap;rounded=0;" vertex="1" parent="1">
          <mxGeometry x="290" y="580" width="60" height="30" as="geometry" />
        </mxCell>
        <mxCell id="Ajewz8YUoXNlqYzXFVEX-37" value="" style="rounded=0;whiteSpace=wrap;html=1;strokeWidth=1;dashed=1;dashPattern=1 1;fillColor=none;strokeColor=#d6b656;" vertex="1" parent="1">
          <mxGeometry x="320" y="550" width="60" height="30" as="geometry" />
        </mxCell>
        <mxCell id="Ajewz8YUoXNlqYzXFVEX-38" value="&lt;font style=&quot;font-size: 12px;&quot;&gt;Ergebnis&lt;/font&gt;" style="text;html=1;strokeColor=none;fillColor=none;align=center;verticalAlign=middle;whiteSpace=wrap;rounded=0;" vertex="1" parent="1">
          <mxGeometry x="320" y="550" width="60" height="30" as="geometry" />
        </mxCell>
      </root>
    </mxGraphModel>
  </diagram>
</mxfile>
